<svg xmlns="http://www.w3.org/2000/svg" width="960" height="520" viewBox="0 0 960 520" role="img" aria-labelledby="title desc">
  <title id="title">Play UI workflow demo</title>
  <desc id="desc">A clickable poster card for the Yuno AI UI workflow demo video.</desc>
  <defs>
    <linearGradient id="bg" x1="0" y1="0" x2="1" y2="1">
      <stop offset="0%" stop-color="#101827"/>
      <stop offset="52%" stop-color="#17203a"/>
      <stop offset="100%" stop-color="#1f2937"/>
    </linearGradient>
    <linearGradient id="accent" x1="0" y1="0" x2="1" y2="1">
      <stop offset="0%" stop-color="#7c3aed"/>
      <stop offset="100%" stop-color="#22d3ee"/>
    </linearGradient>
    <filter id="shadow" x="-20%" y="-20%" width="140%" height="140%">
      <feDropShadow dx="0" dy="18" stdDeviation="22" flood-color="#000000" flood-opacity="0.38"/>
    </filter>
  </defs>
  <rect width="960" height="520" rx="34" fill="url(#bg)"/>
  <circle cx="828" cy="84" r="150" fill="#22d3ee" opacity="0.08"/>
  <circle cx="126" cy="418" r="190" fill="#7c3aed" opacity="0.09"/>
  <rect x="58" y="58" width="844" height="404" rx="28" fill="#0f172a" stroke="#334155" stroke-width="2" filter="url(#shadow)"/>
  <rect x="92" y="96" width="220" height="284" rx="18" fill="#151f35" stroke="#334155"/>
  <rect x="120" y="130" width="150" height="18" rx="9" fill="#94a3b8" opacity="0.45"/>
  <rect x="120" y="184" width="160" height="46" rx="12" fill="#312e81" stroke="#635bff"/>
  <rect x="120" y="252" width="138" height="18" rx="9" fill="#64748b" opacity="0.48"/>
  <rect x="120" y="288" width="166" height="18" rx="9" fill="#64748b" opacity="0.48"/>
  <rect x="348" y="96" width="468" height="284" rx="18" fill="#111827" stroke="#334155"/>
  <rect x="546" y="126" width="104" height="54" rx="14" fill="#172033" stroke="#4f46e5"/>
  <rect x="546" y="216" width="104" height="54" rx="14" fill="#172033" stroke="#22c55e"/>
  <rect x="546" y="306" width="104" height="54" rx="14" fill="#172033" stroke="#f59e0b"/>
  <path d="M598 180 V216" stroke="#64748b" stroke-width="4" stroke-linecap="round"/>
  <path d="M598 270 V306" stroke="#64748b" stroke-width="4" stroke-linecap="round"/>
  <circle cx="480" cy="238" r="86" fill="url(#accent)" opacity="0.95"/>
  <circle cx="480" cy="238" r="70" fill="#020617" opacity="0.76"/>
  <path d="M458 200 L458 276 L522 238 Z" fill="#f8fafc"/>
  <text x="92" y="424" fill="#f8fafc" font-family="Inter, Segoe UI, Arial, sans-serif" font-size="34" font-weight="800">UI Workflow Demo</text>
  <text x="92" y="456" fill="#cbd5e1" font-family="Inter, Segoe UI, Arial, sans-serif" font-size="20">Trigger a workflow, review HITL, and watch live graph execution.</text>
  <text x="718" y="424" fill="#67e8f9" font-family="Inter, Segoe UI, Arial, sans-serif" font-size="22" font-weight="700">Click to play</text>
</svg>
